<svg width="401" height="218" fill="none" xmlns="http://www.w3.org/2000/svg"><path d="M85.9 217.6c-16.6 0-32.7-2.2-48.3-6.6-15.4-4.6-27.8-10.5-37.2-17.7l16.5-36.6c9 6.6 19.7 11.9 32.1 15.9 12.4 4 24.8 6 37.2 6 13.8 0 24-2 30.6-6 6.6-4.2 9.9-9.7 9.9-16.5 0-5-2-9.1-6-12.3-3.8-3.4-8.8-6.1-15-8.1-6-2-14.2-4.2-24.6-6.6-16-3.8-29.1-7.6-39.3-11.4-10.2-3.8-19-9.9-26.4-18.3C8.2 91 4.6 79.8 4.6 65.8c0-12.2 3.3-23.2 9.9-33 6.6-10 16.5-17.9 29.7-23.7C57.6 3.3 73.9.4 93.1.4c13.4 0 26.5 1.6 39.3 4.8 12.8 3.2 24 7.8 33.6 13.8l-15 36.9c-19.4-11-38.8-16.5-58.2-16.5-13.6 0-23.7 2.2-30.3 6.6-6.4 4.4-9.6 10.2-9.6 17.4 0 7.2 3.7 12.6 11.1 16.2 7.6 3.4 19.1 6.8 34.5 10.2 16 3.8 29.1 7.6 39.3 11.4 10.2 3.8 18.9 9.8 26.1 18 7.4 8.2 11.1 19.3 11.1 33.3 0 12-3.4 23-10.2 33-6.6 9.8-16.6 17.6-30 23.4-13.4 5.8-29.7 8.7-48.9 8.7zM400.8 4v210h-39.9L256.2 86.5V214h-48V4h40.2l104.4 127.5V4h48z" fill="#F2F2F2"/></svg>